# xmcd CD database file generated by RipIT.
#
# Track frame offsets:
#	150
#	17161
#	34095
#	50905
#	68673
#	82550
#	100720
#	115338
#	133304
#	151323
#	168268
#	185345
#	208515
#	228201
#	249915
#	267283
#	281797
#
# Disc length: 4163 seconds
#
# Revision: 3
# Processed by: cddbd v1.5.1PL2 Copyright (c) Steve Scherf et al.
# Submitted via: RipIT 3.4 www.suwald.com/ripit/ripit.html at Tue Mar 7 07:51:10 CET 2006.
#
DISCID=e0104111
DTITLE=Depeche Mode - The Singles 81-85 [CD2)
DYEAR=1998
DGENRE=Synthpop
TTITLE0=Dreaming Of Me
TTITLE1=New Life
TTITLE2=Just Can't Get Enough
TTITLE3=See You
TTITLE4=The Meaning Of Love
TTITLE5=Leave In Silence
TTITLE6=Get The Balance Right
TTITLE7=Everything Counts
TTITLE8=Love In Itself
TTITLE9=People Are People
TTITLE10=Master And Servant
TTITLE11=Blasphemous Rumours
TTITLE12=Somebody
TTITLE13=Shake The Disease
TTITLE14=It's Called A Heart
TTITLE15=Photographic (Some Bizzare Version)
TTITLE16=Just Can't Get Enough (Schizo Mix)
EXTD=ID3G: 147 YEAR: 1998
EXTT0=
EXTT1=
EXTT2=
EXTT3=
EXTT4=
EXTT5=
EXTT6=
EXTT7=
EXTT8=
EXTT9=
EXTT10=
EXTT11=
EXTT12=
EXTT13=
EXTT14=
EXTT15=
EXTT16=
PLAYORDER=
